<?xml version="1.0" encoding="UTF-8" standalone="no"?>
<!-- Created with Inkscape (http://www.inkscape.org/) -->

<svg
   width="193.89479mm"
   height="185.07578mm"
   viewBox="0 0 193.89479 185.07578"
   version="1.1"
   id="svg1"
   xml:space="preserve"
   xmlns:xlink="http://www.w3.org/1999/xlink"
   xmlns="http://www.w3.org/2000/svg"
   xmlns:svg="http://www.w3.org/2000/svg"><defs
     id="defs1"><linearGradient
       id="linearGradient1"><stop
         style="stop-color:#c77b30;stop-opacity:1;"
         offset="0"
         id="stop1" /><stop
         style="stop-color:#bf6530;stop-opacity:1;"
         offset="0.99999988"
         id="stop2" /></linearGradient><linearGradient
       xlink:href="#linearGradient1"
       id="linearGradient2"
       x1="34.794594"
       y1="81.004128"
       x2="169.76344"
       y2="215.97298"
       gradientUnits="userSpaceOnUse" /><filter
       style="color-interpolation-filters:sRGB"
       id="filter32"
       x="-0.0050294752"
       y="-0.0053211655"
       width="1.0158219"
       height="1.0258529"><feFlood
         result="flood"
         in="SourceGraphic"
         flood-opacity="0.498039"
         flood-color="rgb(0,0,0)"
         id="feFlood31" /><feGaussianBlur
         result="blur"
         in="SourceGraphic"
         stdDeviation="0.400000"
         id="feGaussianBlur31" /><feOffset
         result="offset"
         in="blur"
         dx="1.100000"
         dy="2.744171"
         id="feOffset31" /><feComposite
         result="comp1"
         operator="in"
         in="flood"
         in2="offset"
         id="feComposite31" /><feComposite
         result="comp2"
         operator="over"
         in="SourceGraphic"
         in2="comp1"
         id="feComposite32" /></filter></defs><g
     id="layer1"
     transform="translate(-5.8816275,-57.322739)"><g
       id="g3"><g
         id="g2"><path
           style="fill:url(#linearGradient2);fill-opacity:1;filter:url(#filter32)"
           d="m 26.298238,238.60673 c -8.036564,-0.68053 -15.518771,-7.08459 -18.2116156,-15.58741 -1.1070891,-3.4957 -1.0581741,-0.9776 -1.05391,-54.25431 0.00253,-31.63704 0.074813,-49.70075 0.2027349,-50.66521 0.1093399,-0.82437 0.3878253,-2.14797 0.6188564,-2.94133 0.436838,-1.50011 1.697474,-4.03674 2.0713943,-4.16803 0.118299,-0.0415 7.76152,6.04384 16.984937,13.52306 17.656524,14.31759 19.439264,15.77234 30.8743,25.19403 7.05681,5.81433 32.684651,26.83647 36.56197,29.99124 3.575379,2.9091 5.840905,3.81514 9.539705,3.81514 2.5874,0 4.66574,-0.49111 6.58031,-1.55493 0.71356,-0.39648 4.8425,-3.78295 9.64338,-7.9093 4.61755,-3.96878 11.07737,-9.49961 14.35517,-12.29074 3.27779,-2.79113 6.98766,-5.95581 8.24415,-7.03263 5.50759,-4.72004 7.47233,-6.39306 14.50176,-12.34857 11.85495,-10.04383 30.53489,-25.72935 34.65012,-29.09567 2.60447,-2.1305 2.89683,-2.35534 3.06271,-2.35534 0.2875,0 1.74396,3.64031 2.14171,5.35304 0.35959,1.54842 0.37294,3.42631 0.37294,52.45976 v 50.85385 c 0,11.20395 -9.46862,18.53407 -18.56896,18.94204 -1.56697,0.0703 -150.173421,0.2744 -152.571662,0.0713 z m 75.687262,-65.4507 c -0.49167,-0.1459 -1.20682,-0.42893 -1.58923,-0.62897 -0.38241,-0.20004 -4.064075,-3.13343 -8.181477,-6.51864 -18.646619,-15.33073 -33.905426,-27.88868 -35.317181,-29.06593 -0.84735,-0.7066 -5.194392,-4.27173 -9.660093,-7.9225 -4.4657,-3.65077 -9.461862,-7.74156 -11.102582,-9.09066 C 32.717926,117.11968 16.305443,103.86165 14.25515,102.25481 10.944164,99.65995 7.7633936,93.301907 7.0249769,87.802415 6.7732199,85.92741 6.782098,82.209367 7.043163,80.186237 7.7387793,74.79554 10.246947,69.544159 14.007385,65.605165 c 3.617065,-3.788814 7.85783,-6.099246 12.959188,-7.060358 2.428583,-0.457553 6.91712,-0.295899 9.126035,0.328673 7.307305,2.066142 12.774103,6.725998 15.978731,13.620145 1.318764,2.837069 2.435801,7.069489 2.435801,9.229176 v 0.725772 h 47.76205 47.76205 l 0.1295,-1.231199 c 0.63339,-6.021966 3.14071,-11.505484 7.17596,-15.693859 2.04202,-2.119506 3.46695,-3.21067 5.94511,-4.552568 3.65577,-1.979553 6.25581,-2.599842 10.91451,-2.60386 3.4429,-0.003 3.66066,0.02289 5.8603,0.695973 9.1211,2.791024 15.67321,10.453037 17.40111,20.348794 0.44807,2.566153 0.29128,8.20191 -0.29454,10.586999 -0.83589,3.403185 -2.19271,6.482975 -4.15496,9.431177 -0.95842,1.43999 -1.65109,2.12074 -4.99595,4.91002 -15.36882,12.81609 -35.90248,30.31223 -65.16495,55.52518 -7.37331,6.35295 -13.76501,11.81738 -14.20378,12.14319 -1.71396,1.2727 -4.57475,1.7658 -6.65805,1.14761 z"
           id="path1" /></g></g></g></svg>
